# Tiled2Unity generated file. Do not modify by hand.
# Wavefront file for 'level1_mesh_0002.obj'

# Vertices (Count = 24)
v -66 -7 0
v -67 -7 0
v -67 -6 0
v -66 -6 0
v -67 -7 0
v -68 -7 0
v -68 -6 0
v -67 -6 0
v -68 -7 0
v -69 -7 0
v -69 -6 0
v -68 -6 0
v -69 -7 0
v -70 -7 0
v -70 -6 0
v -69 -6 0
v -70 -7 0
v -71 -7 0
v -71 -6 0
v -70 -6 0
v -71 -7 0
v -72 -7 0
v -72 -6 0
v -71 -6 0

# Texture cooridinates (Count = 4)
vt 0.6666667 0.25
vt 1 0.25
vt 1 0.5
vt 0.6666667 0.5

# Normal
vn 0 0 -1

# Mesh description
g level1_mesh_0002

# Faces
f 1/1/1 2/2/1 3/3/1 4/4/1
f 5/1/1 6/2/1 7/3/1 8/4/1
f 9/1/1 10/2/1 11/3/1 12/4/1
f 13/1/1 14/2/1 15/3/1 16/4/1
f 17/1/1 18/2/1 19/3/1 20/4/1
f 21/1/1 22/2/1 23/3/1 24/4/1

